<svg version="1.1" xmlns="http://www.w3.org/2000/svg" xmlns:xlink="http://www.w3.org/1999/xlink" viewBox="0 0 172 172"><g fill="none" fill-rule="nonzero" stroke="none" stroke-width="1" stroke-linecap="butt" stroke-linejoin="miter" stroke-miterlimit="10" stroke-dasharray="" stroke-dashoffset="0" font-family="none" font-weight="none" font-size="none" text-anchor="none" style="mix-blend-mode: normal"><path d="M0,172v-172h172v172z" fill="none"></path><g fill="#ffffff"><path d="M5.375,1.34375c-2.28438,0 -4.03125,1.74687 -4.03125,4.03125v40.3125c0,2.28438 1.74687,4.03125 4.03125,4.03125c2.28437,0 4.03125,-1.74687 4.03125,-4.03125v-30.63855l57.78125,57.78125c0.80625,0.80625 1.88072,1.2099 2.82135,1.2099c0.94062,0 2.0151,-0.40365 2.82135,-1.2099c1.6125,-1.6125 1.6125,-4.16458 0,-5.6427l-57.78125,-57.78125h30.63855c2.28438,0 4.03125,-1.74688 4.03125,-4.03125c0,-2.28438 -1.74687,-4.03125 -4.03125,-4.03125zM126.3125,1.34375c-2.28437,0 -4.03125,1.74687 -4.03125,4.03125c0,2.28437 1.74688,4.03125 4.03125,4.03125h30.63855l-147.5448,147.5448v-30.63855c0,-2.28437 -1.74688,-4.03125 -4.03125,-4.03125c-2.28438,0 -4.03125,1.74688 -4.03125,4.03125v40.3125c0,2.28438 1.74687,4.03125 4.03125,4.03125h40.3125c2.28438,0 4.03125,-1.74687 4.03125,-4.03125c0,-2.28438 -1.74687,-4.03125 -4.03125,-4.03125h-30.63855l147.5448,-147.5448v30.63855c0,2.28438 1.74687,4.03125 4.03125,4.03125c2.28438,0 4.03125,-1.74687 4.03125,-4.03125v-40.3125c0,-2.28438 -1.74687,-4.03125 -4.03125,-4.03125zM101.94128,97.9599c-1.02461,0 -2.03242,0.40365 -2.77148,1.2099c-1.6125,1.6125 -1.6125,4.16458 0,5.6427l57.78125,57.78125h-30.63855c-2.28437,0 -4.03125,1.74687 -4.03125,4.03125c0,2.28438 1.74688,4.03125 4.03125,4.03125h40.3125c2.28438,0 4.03125,-1.74687 4.03125,-4.03125v-40.3125c0,-2.28437 -1.74687,-4.03125 -4.03125,-4.03125c-2.28438,0 -4.03125,1.74688 -4.03125,4.03125v30.63855l-57.78125,-57.78125c-0.80625,-0.80625 -1.84661,-1.2099 -2.87122,-1.2099z"></path></g></g></svg>